<?xml version="1.0" encoding="UTF-8"?>
<svg width="60px" height="46px" viewBox="0 0 60 46" version="1.1" xmlns="http://www.w3.org/2000/svg" xmlns:xlink="http://www.w3.org/1999/xlink">
    <!-- Generator: Sketch 64 (93537) - https://sketch.com -->
    <title>icon</title>
    <desc>Created with Sketch.</desc>
    <g id="Page-1" stroke="none" stroke-width="1" fill="none" fill-rule="evenodd">
        <g id="icons" transform="translate(-111.000000, -107.000000)" fill="#FFFFFF" fill-rule="nonzero">
            <g id="dashboard" transform="translate(100.000000, 107.000000)">
                <g id="icon" transform="translate(11.000000, 0.000000)">
                    <path d="M7.57863281,10.0197656 C3.24738281,14.8885547 0.405117187,21.1664063 0,28.0804688 L7.1203125,28.0804688 C7.50222656,23.1014063 9.4771875,18.5694141 12.5484375,14.9895703 L7.57863281,10.0197656 Z" id="Path"></path>
                    <path d="M29.2154297,31.7798438 L29.2154297,31.7798438 L29.2154297,31.7798438 C28.61625,32.0823047 28.2421875,32.6852344 28.2421875,33.3539063 C28.2439453,34.8302344 30.3261328,35.6317969 31.3114453,34.5246094 L37.4552344,27.6564844 L29.2154297,31.7798438 Z" id="Path"></path>
                    <path d="M10.0642969,7.53410156 L15.0341016,12.5039062 C18.6139453,9.43265625 23.263125,7.45769531 28.2421875,7.07578125 L28.2421875,0.04453125 C21.328125,0.44953125 14.9332031,3.20285156 10.0642969,7.53410156 Z" id="Path"></path>
                    <path d="M31.7578125,0.04453125 L31.7578125,7.07578125 C36.736875,7.45769531 41.3860547,9.43265625 44.9658984,12.5039062 L49.9357031,7.53410156 C45.0667969,3.20285156 38.671875,0.44953125 31.7578125,0.04453125 Z" id="Path"></path>
                    <path d="M52.4213672,10.0197656 L47.4515625,14.9895703 C50.5228125,18.5692969 52.4977734,23.1014063 52.8796875,28.0804688 L60,28.0804688 C59.5948828,21.1664063 56.7526172,14.8885547 52.4213672,10.0197656 Z" id="Path"></path>
                    <path d="M52.8200391,31.5960938 C52.666875,33.5895703 52.3346484,35.5605469 51.6675,37.453125 C51.345,38.3642578 50.3504297,38.8497656 49.4255859,38.5277344 C48.5089453,38.205 48.0282422,37.2008203 48.3509766,36.2858203 C49.0822266,34.2104297 49.4530078,32.0423438 49.4530078,29.8381641 C49.4530078,24.5076563 47.2849219,19.6741406 43.7840625,16.1728125 C43.7838281,16.1725781 43.7832422,16.1723438 43.7832422,16.1723438 C43.7832422,16.1723438 43.7826562,16.1712891 43.7824219,16.1710547 C40.2812109,12.6703125 35.3305078,10.5023437 30,10.5023437 C24.6694922,10.5023437 19.7187891,12.6704297 16.2174609,16.1712891 C16.2172266,16.1715234 16.2169922,16.1721094 16.2169922,16.1721094 C16.2169922,16.1721094 16.2159375,16.1726953 16.2157031,16.1729297 C12.7149609,19.6741406 10.546875,24.5077734 10.546875,29.8382813 C10.546875,32.0424609 10.9176563,34.2105469 11.6489062,36.2859375 C11.9716406,37.2009375 11.4909375,38.2051172 10.5742969,38.5278516 C9.66621094,38.8488281 8.656875,38.3682422 8.33238281,37.4532422 C7.66523437,35.5606641 7.333125,33.5898047 7.17984375,31.5962109 L0,31.5962109 C0.251484375,35.8890234 1.37109375,39.5224219 2.94222656,42.7833984 C3.78339844,44.5291406 5.63039062,45.6587109 7.64742188,45.6587109 L52.3507031,45.6587109 C54.3694922,45.6587109 56.2164844,44.5291406 57.0594141,42.7816406 C58.6108594,39.5524219 59.7583594,35.7203906 60,31.5962109 L52.8200391,31.5962109 L52.8200391,31.5960938 Z M46.3357031,23.1331641 L33.9310547,36.8695313 C30.7376953,40.4414063 24.7265625,38.2067578 24.7265625,33.3539063 C24.7265625,31.3471875 25.8427734,29.5410938 27.6372656,28.6394531 C27.6396094,28.6383984 27.6406641,28.6360547 27.6430078,28.635 L44.2396875,20.3883984 C44.2454297,20.3855859 44.2515234,20.3865234 44.2572656,20.3837109 C45.9574219,19.5549609 47.6309766,21.6437109 46.3357031,23.1331641 Z" id="Shape"></path>
                </g>
            </g>
        </g>
    </g>
</svg>