<?xml version="1.0" encoding="UTF-8"?>
<svg width="60px" height="60px" viewBox="0 0 60 60" version="1.1" xmlns="http://www.w3.org/2000/svg" xmlns:xlink="http://www.w3.org/1999/xlink">
    <!-- Generator: Sketch 64 (93537) - https://sketch.com -->
    <title>icon</title>
    <desc>Created with Sketch.</desc>
    <g id="Page-1" stroke="none" stroke-width="1" fill="none" fill-rule="evenodd">
        <g id="icons" transform="translate(-500.000000, -100.000000)" fill="#FFFFFF" fill-rule="nonzero">
            <g id="deploy-process" transform="translate(500.000000, 100.000000)">
                <g id="icon">
                    <g id="gear" transform="translate(35.000000, 0.000000)">
                        <path d="M22.2133876,13.6724854 C22.2614645,13.2852173 22.332193,12.9025268 22.332193,12.5001526 C22.332193,12.0973206 22.2614645,11.7150879 22.2133876,11.327362 L24.4882581,9.62265012 C24.9953773,9.24270633 25.1368343,8.54736328 24.818787,7.99987793 L22.7764424,4.49981695 C22.458395,3.95507812 21.7788462,3.72756961 21.1931398,3.9724732 L18.5752589,5.065155 C17.9363905,4.58267215 17.257304,4.15740961 16.5074889,3.84750363 L16.1593935,1.0949707 C16.0784948,0.47012332 15.5431768,0 14.9070821,0 L10.8247041,0 C10.1886095,0 9.65051775,0.47012332 9.57239278,1.0949707 L9.22383503,3.84750363 C8.47402,4.15740961 7.79262201,4.58496094 7.15606509,5.065155 L4.53818414,3.9724732 C3.95016639,3.72756961 3.27061763,3.95233148 2.9525703,4.49981695 L0.91299929,7.99987793 C0.594489704,8.54507449 0.735946746,9.23995969 1.24352805,9.62265012 L3.5183987,11.327362 C3.46754805,11.7150879 3.39728178,12.0973206 3.39728178,12.5001526 C3.39728178,12.9025268 3.46754805,13.2852173 3.51562497,13.6724854 L1.24121669,15.377655 C0.733635385,15.7575989 0.592178225,16.4524841 0.910225562,16.9999695 L2.9525703,20.5000305 C3.27061763,21.0452271 3.95016639,21.2722779 4.53587278,21.0273743 L7.15375373,19.9324036 C7.79262201,20.4148864 8.47170864,20.840149 9.22152367,21.150055 L9.56961905,23.9025879 C9.65051775,24.5301819 10.1858357,24.9998474 10.8219304,24.9998474 L14.9043084,24.9998474 C15.5408653,24.9998474 16.0784948,24.5301819 16.1566199,23.9048767 L16.5051775,21.1523438 C17.2549927,20.8424378 17.9363905,20.4148864 18.5729475,19.9351501 L21.1908284,21.0273743 C21.7788462,21.2722779 22.458395,21.0475159 22.7764424,20.5000305 L24.8160133,16.9999695 C25.134523,16.4547729 24.9930658,15.7598877 24.4854845,15.377655 L22.2133876,13.6724854 Z M12.8647374,17.4998474 C10.074889,17.4998474 7.81527361,15.2622986 7.81527361,12.5001526 C7.81527361,9.73754883 10.074889,7.5 12.8647374,7.5 C15.6541236,7.5 17.9137389,9.73754883 17.9137389,12.5001526 C17.9137389,15.2622986 15.6541236,17.4998474 12.8647374,17.4998474 Z" id="Shape"></path>
                    </g>
                    <g id="rocket" transform="translate(0.000000, 28.000000)">
                        <path d="M31.3505143,0.00294967683 C25.1717601,-0.115338864 18.1252108,3.33333333 13.664902,8.68307546 C9.40241886,8.76897548 5.25203692,10.6348364 2.19629019,13.8976286 C2.0182471,14.0849189 1.9549429,14.3651501 2.03275432,14.6186255 C2.11188457,14.8735091 2.31762324,15.0579829 2.56556472,15.0960042 L7.64836485,15.8733289 L7.02059814,16.6238979 C6.78716389,16.9027209 6.79903343,17.3265882 7.0469749,17.5913291 L15.5231442,26.6418107 C15.6510714,26.7784058 15.8198827,26.8474075 15.9900127,26.8474075 C16.1469544,26.8474075 16.3038961,26.7882633 16.4291856,26.6685665 L17.132126,25.9982647 L17.8601244,31.4254557 C17.8957331,31.6901967 18.090921,31.8845278 18.326993,31.9690197 C18.3876595,31.9901426 18.4509637,32 18.5155867,32 C18.7028617,32 18.8940931,31.9126918 19.0259769,31.7732803 C22.0395208,28.5555503 23.7869807,24.1239546 23.8674298,19.5726622 C28.8829691,14.8002829 32.1391791,7.27910314 31.9954259,0.690149772 C31.9861941,0.315569392 31.702644,0.0128070553 31.3505143,0.00294967683 Z M25.2733106,12.1585055 C24.6310367,12.8442974 23.7869807,13.1878974 22.9416057,13.1878974 C22.0962308,13.1878974 21.2521748,12.8442974 20.6099009,12.1585055 C19.325353,10.7855135 19.325353,8.55211316 20.6099009,7.17912116 C21.8957675,5.80612917 23.987444,5.80612917 25.2733106,7.17912116 C26.5591773,8.55211316 26.5591773,10.7869217 25.2733106,12.1585055 Z" id="Shape"></path>
                        <path d="M3.74613738,22.242393 C2.27466802,23.7139419 0.254491858,30.3620423 0.0289582367,31.1143201 C-0.0439276288,31.3563693 0.0234574167,31.6190476 0.200858863,31.7978339 C0.332878544,31.9298608 0.50752958,32 0.687681436,32 C0.753691277,32 0.819701118,31.990373 0.885710957,31.9711191 C1.63794809,31.7455733 8.28568911,29.725288 9.75715847,28.2537391 C11.4142805,26.5965274 11.4142805,23.8996046 9.75715847,22.242393 C8.09866124,20.5851814 5.40325941,20.5865567 3.74613738,22.242393 Z" id="Path"></path>
                    </g>
                </g>
            </g>
        </g>
    </g>
</svg>