<?xml version="1.0" encoding="UTF-8"?>
<svg width="60px" height="60px" viewBox="0 0 60 60" version="1.1" xmlns="http://www.w3.org/2000/svg" xmlns:xlink="http://www.w3.org/1999/xlink">
    <!-- Generator: Sketch 64 (93537) - https://sketch.com -->
    <title>icon</title>
    <desc>Created with Sketch.</desc>
    <g id="Page-1" stroke="none" stroke-width="1" fill="none" fill-rule="evenodd">
        <g id="icons" transform="translate(-620.000000, -100.000000)" fill="#FFFFFF" fill-rule="nonzero">
            <g id="deploy" transform="translate(500.000000, 100.000000)">
                <g id="icon" transform="translate(120.000000, 0.000000)">
                    <path d="M58.6554385,0.00779402393 C46.96577,-0.21399699 33.634308,6.25226338 25.1957895,16.2830299 C17.13154,16.4440924 9.27937623,19.9425816 3.49816765,26.060317 C3.16132553,26.4114863 3.04155945,26.9369198 3.18877193,27.4121863 C3.33847953,27.890093 3.7277193,28.2359813 4.19680313,28.3072713 L13.8130215,29.764755 L12.6253411,31.172072 C12.1837037,31.694865 12.2061599,32.4896163 12.6752437,32.9860055 L28.711423,49.9556585 C28.9534502,50.2117743 29.2728265,50.3411525 29.5946977,50.3411525 C29.891618,50.3411525 30.188538,50.230257 30.425575,50.0058255 L31.7554775,48.7490098 L33.1327875,58.9249928 C33.200156,59.4213823 33.5694347,59.785753 34.0160625,59.9441753 C34.1308383,59.9837808 34.2506043,60.0022634 34.3728655,60.0022634 C34.7271735,60.0022634 35.0889667,59.8385605 35.3384795,59.577164 C41.039844,53.5439203 44.345887,45.2346783 44.4980897,36.701005 C53.9870565,27.7527938 60.1475243,13.6505818 59.8755555,1.2962942 C59.8580897,0.59395599 59.3216375,0.0262766085 58.6554385,0.00779402393 Z M47.1578948,22.7994611 C45.942768,24.0853209 44.345887,24.729571 42.7465107,24.729571 C41.1471345,24.729571 39.5502535,24.0853209 38.3351267,22.7994611 C35.9048732,20.2251011 35.9048732,16.0374756 38.3351267,13.4631156 C40.7678753,10.8887556 44.7251462,10.8887556 47.1578948,13.4631156 C49.5906432,16.0374756 49.5906432,20.2277415 47.1578948,22.7994611 Z" id="Shape"></path>
                    <path d="M6.79672515,42.2625 C4.12693958,44.9375 0.46159844,57.0225 0.0523976608,58.39 C-0.0798440545,58.83 0.042417154,59.3075 0.3642885,59.6325 C0.603820663,59.8725 0.920701755,60 1.24756335,60 C1.36732944,60 1.48709552,59.9825 1.6068616,59.9475 C2.9716959,59.5375 15.0331384,55.865 17.702924,53.19 C20.7095517,50.1775 20.7095517,45.275 17.702924,42.2625 C14.6938012,39.25 9.80335283,39.2525 6.79672515,42.2625 Z" id="Path"></path>
                </g>
            </g>
        </g>
    </g>
</svg>