<?xml version="1.0" encoding="UTF-8"?>
<svg width="60px" height="60px" viewBox="0 0 60 60" version="1.1" xmlns="http://www.w3.org/2000/svg" xmlns:xlink="http://www.w3.org/1999/xlink">
    <!-- Generator: Sketch 64 (93537) - https://sketch.com -->
    <title>icon</title>
    <desc>Created with Sketch.</desc>
    <g id="Page-1" stroke="none" stroke-width="1" fill="none" fill-rule="evenodd">
        <g id="icons" transform="translate(-380.000000, -100.000000)" fill="#FFFFFF" fill-rule="nonzero">
            <g id="release-candidate" transform="translate(373.000000, 100.000000)">
                <g id="icon" transform="translate(7.000000, 0.000000)">
                    <path d="M33.515625,26.6015625 L33.515625,12.3046875 L35.2732031,12.3046875 C35.9220703,12.3046875 36.5177344,11.9476172 36.8233594,11.3759766 C37.1289844,10.8043359 37.0962891,10.1108203 36.7358203,9.57175781 L31.4625,0.733828125 C30.8102344,-0.2446875 29.1896484,-0.2446875 28.5373828,0.733828125 L23.2641797,9.571875 C22.9037109,10.1109375 22.8711328,10.8044531 23.1766406,11.3760938 C23.4821484,11.9477344 24.0778125,12.3048047 24.7267969,12.3048047 L26.484375,12.3048047 L26.484375,26.6016797 C26.484375,27.5724609 27.2714062,28.3594922 28.2421875,28.3594922 L31.7578125,28.3594922 C32.7285937,28.3594922 33.515625,27.5723437 33.515625,26.6015625 L33.515625,26.6015625 Z" id="Path"></path>
                    <path d="M10.6640625,28.359375 L14.1796875,28.359375 C15.1504688,28.359375 15.9375,27.5723437 15.9375,26.6015625 L15.9375,19.3359375 L17.6950781,19.3359375 C18.3439453,19.3359375 18.9396094,18.9788672 19.2452344,18.4072266 C19.5508594,17.8355859 19.5181641,17.1420703 19.1576953,16.6030078 L13.884375,7.76507812 C13.2321094,6.7865625 11.6115234,6.7865625 10.9592578,7.76507812 L5.68605469,16.603125 C5.32558594,17.1421875 5.29300781,17.8357031 5.59851562,18.4073437 C5.90402344,18.9789844 6.49980469,19.3359375 7.14867187,19.3359375 L8.90625,19.3359375 L8.90625,26.6015625 C8.90625,27.5723437 9.69328125,28.359375 10.6640625,28.359375 L10.6640625,28.359375 Z" id="Path"></path>
                    <path d="M45.8203125,28.359375 L49.3359375,28.359375 C50.3067188,28.359375 51.09375,27.5723437 51.09375,26.6015625 L51.09375,19.3359375 L52.8513281,19.3359375 C53.5001953,19.3359375 54.0958594,18.9788672 54.4014844,18.4072266 C54.7071094,17.8355859 54.6744141,17.1420703 54.3139453,16.6030078 L49.040625,7.76507812 C48.3883594,6.7865625 46.7677734,6.7865625 46.1155078,7.76507812 L40.8423047,16.6030078 C40.4818359,17.1420703 40.4492578,17.8355859 40.7547656,18.4072266 C41.0602734,18.9788672 41.6559375,19.3359375 42.3049219,19.3359375 L44.0625,19.3359375 L44.0625,26.6015625 C44.0625,27.5723437 44.8495312,28.359375 45.8203125,28.359375 L45.8203125,28.359375 Z" id="Path"></path>
                    <path d="M1.76085938,42.421875 L20.2702734,42.421875 C20.8579688,42.421875 21.406875,42.1280859 21.7327734,41.6390625 L28.2421875,31.875 L7.97191406,31.875 C7.38421875,31.875 6.8353125,32.1687891 6.50941406,32.6578125 L0.298242187,39.6890625 C-0.480703125,40.8571875 0.356835937,42.421875 1.76085938,42.421875 Z" id="Path"></path>
                    <path d="M53.4905859,32.6578125 C53.1646875,32.1687891 52.6157812,31.875 52.0280859,31.875 L31.7578125,31.875 L38.2672266,41.6390625 C38.593125,42.1280859 39.1420312,42.421875 39.7297266,42.421875 L58.2391406,42.421875 C59.6431641,42.421875 60.4805859,40.8571875 59.7016406,39.6890625 L53.4905859,32.6578125 Z" id="Path"></path>
                    <path d="M52.8515625,58.2421875 C52.8515625,56.8611328 52.8515625,51.2538281 52.8515625,45.9375 L39.7297266,45.9375 C37.9633594,45.9375 36.3222656,45.0603516 35.3421094,43.5891797 L31.7578125,38.2129688 L31.7578125,60 L51.09375,60 C52.0653516,60 52.8515625,59.2137891 52.8515625,58.2421875 Z" id="Path"></path>
                    <path d="M8.90625,60 L28.2421875,60 L28.2421875,38.2129688 L24.6578906,43.5891797 C23.6777344,45.0603516 22.0366406,45.9375 20.2702734,45.9375 L7.1484375,45.9375 C7.1484375,52.1203125 7.1484375,58.54125 7.1484375,58.2421875 C7.1484375,59.2137891 7.93464844,60 8.90625,60 Z" id="Path"></path>
                </g>
            </g>
        </g>
    </g>
</svg>