<?xml version="1.0" encoding="UTF-8"?>
<svg width="60px" height="56px" viewBox="0 0 60 56" version="1.1" xmlns="http://www.w3.org/2000/svg" xmlns:xlink="http://www.w3.org/1999/xlink">
    <!-- Generator: Sketch 64 (93537) - https://sketch.com -->
    <title>icon</title>
    <desc>Created with Sketch.</desc>
    <g id="Page-1" stroke="none" stroke-width="1" fill="none" fill-rule="evenodd">
        <g id="icons" transform="translate(-741.000000, -102.000000)" fill="#FFFFFF" fill-rule="nonzero">
            <g id="reports" transform="translate(740.000000, 102.000000)">
                <g id="icon" transform="translate(1.000000, 0.000000)">
                    <path d="M58.3448148,30.0001852 L37.5522222,30.0001852 C36.6435185,30.0001852 35.9027778,30.7409259 35.9027778,31.6494444 C35.9027778,32.1122222 36.0994444,32.5290741 36.4061111,32.8298148 L51.0472222,47.4709259 C51.347963,47.795 51.7824074,47.9977778 52.257037,47.9977778 C52.8298148,47.9977778 53.3331481,47.7083333 53.6283333,47.2685185 C57.227963,43.0901852 59.5427778,37.7835185 59.9596296,31.9444444 C59.9827778,31.8461111 59.9942593,31.7477778 59.9942593,31.6492593 C59.9942593,30.7409259 59.2592593,30.0001852 58.3448148,30.0001852 Z" id="Path"></path>
                    <path d="M31.2731481,0.11 C30.3644444,0.115555556 29.6296296,0.850740741 29.6296296,1.75925926 L29.6296296,24.8668519 C29.6296296,25.7812963 30.3644444,26.522037 31.2731481,26.522037 L54.3866667,26.522037 C55.2953704,26.522037 56.0359259,25.7812963 56.0359259,24.8668519 C55.2198148,11.5685185 44.5774074,0.926111111 31.2731481,0.11 Z" id="Path"></path>
                    <path d="M43.9757407,46.1227778 L26.9272222,29.0742593 C26.637963,28.7790741 26.4644444,28.3681481 26.4644444,27.9225926 L26.4583333,3.84259259 C26.4583333,2.93407407 25.7235185,2.19907407 24.8148148,2.19907407 C10.9664815,3.04407407 0,14.5485185 0,28.6055556 C0,43.2177778 11.8462963,55.0696296 26.4583333,55.0696296 C33.125,55.0696296 39.212963,52.6044444 43.8657407,48.5359259 C44.2246296,48.2348148 44.4503704,47.7837037 44.4503704,47.2801852 C44.4503704,46.8344444 44.2707407,46.4235185 43.9757407,46.1227778 Z" id="Path"></path>
                </g>
            </g>
        </g>
    </g>
</svg>