<?xml version="1.0" encoding="UTF-8"?>
<svg width="60px" height="60px" viewBox="0 0 60 60" version="1.1" xmlns="http://www.w3.org/2000/svg" xmlns:xlink="http://www.w3.org/1999/xlink">
    <!-- Generator: Sketch 64 (93537) - https://sketch.com -->
    <title>icon</title>
    <desc>Created with Sketch.</desc>
    <g id="Page-1" stroke="none" stroke-width="1" fill="none" fill-rule="evenodd">
        <g id="icons" transform="translate(-860.000000, -100.000000)" fill="#FFFFFF" fill-rule="nonzero">
            <g id="tenant" transform="translate(860.000000, 100.000000)">
                <g id="icon">
                    <path d="M54.9439453,5.12480315 C48.2025,-1.66972441 37.2333984,-1.66948819 30.4919531,5.12480315 C25.5495703,10.1062205 24.09375,17.5432677 26.6876953,23.9898425 L0,50.8062992 L0,59.9709449 L9.94136719,59.9709449 L11.7773438,54.6457087 L16.7588672,53.0096457 L18.3539062,48.075 L23.1026953,46.8279921 L36.2244141,33.6027165 C42.6215625,36.2183858 50.0010937,34.7513386 54.9440625,29.7693307 C61.6853906,22.9748031 61.6853906,11.9193307 54.9439453,5.12480315 Z M47.0441016,17.3840551 C44.4038672,17.3840551 42.2559375,15.2190945 42.2559375,12.558189 C42.2559375,9.89716535 44.4039844,7.73244094 47.0441016,7.73244094 C49.6843359,7.73244094 51.8321484,9.89728346 51.8321484,12.558189 C51.8321484,15.2192126 49.6842187,17.3840551 47.0441016,17.3840551 Z" id="Shape"></path>
                </g>
            </g>
        </g>
    </g>
</svg>