<?xml version="1.0" encoding="UTF-8"?>
<svg width="60px" height="60px" viewBox="0 0 60 60" version="1.1" xmlns="http://www.w3.org/2000/svg" xmlns:xlink="http://www.w3.org/1999/xlink">
    <!-- Generator: Sketch 64 (93537) - https://sketch.com -->
    <title>icon</title>
    <desc>Created with Sketch.</desc>
    <g id="Page-1" stroke="none" stroke-width="1" fill="none" fill-rule="evenodd">
        <g id="icons" transform="translate(-251.000000, -100.000000)" fill="#FFFFFF" fill-rule="nonzero">
            <g id="workflow" transform="translate(242.000000, 100.000000)">
                <g id="icon" transform="translate(9.000000, 0.000000)">
                    <path d="M2.85636364,21.6941818 L22.7321818,21.6941818 C23.2343636,21.6941818 23.6412727,21.2870909 23.6412727,20.7850909 L23.6412727,0.909090909 C23.6412727,0.407090909 23.2343636,0 22.7321818,0 L2.85636364,0 C2.354,0 1.94727273,0.407090909 1.94727273,0.909090909 L1.94727273,20.7850909 C1.94727273,21.2872727 2.354,21.6941818 2.85636364,21.6941818 Z" id="Path"></path>
                    <path d="M13.4370909,34.8101818 C13.0823636,34.4552727 12.5063636,34.4552727 12.1516364,34.8101818 L0.333454545,46.6283636 C-0.0216363636,46.9834545 -0.0216363636,47.5590909 0.333454545,47.914 L12.1516364,59.7321818 C12.3290909,59.9096364 12.5618182,59.9983636 12.7943636,59.9983636 C13.0269091,59.9983636 13.2598182,59.9096364 13.4370909,59.7321818 L25.2552727,47.914 C25.6103636,47.5589091 25.6103636,46.9832727 25.2552727,46.6283636 L13.4370909,34.8101818 Z" id="Path"></path>
                    <path d="M41.8547273,21.668 L53.3,21.668 C53.6247273,21.668 53.9247273,21.4947273 54.0872727,21.2134545 L59.8096364,11.3018182 C59.972,11.0205455 59.972,10.674 59.8096364,10.3927273 L54.0872727,0.480909091 C53.9249091,0.199636364 53.6247273,0.0263636364 53.3,0.0263636364 L41.8547273,0.0263636364 C41.5298182,0.0263636364 41.2296364,0.199636364 41.0674545,0.480909091 L35.3450909,10.3927273 C35.1827273,10.674 35.1827273,11.0205455 35.3450909,11.3018182 L41.0674545,21.2134545 C41.23,21.4947273 41.5298182,21.668 41.8547273,21.668 Z" id="Path"></path>
                    <path d="M48.3747273,35.7149091 C42.0021818,35.7149091 36.8178182,40.8990909 36.8178182,47.2714545 C36.8178182,53.6438182 42.0021818,58.8283636 48.3747273,58.8283636 C54.7472727,58.8283636 59.9316364,53.644 59.9316364,47.2714545 C59.9316364,40.8990909 54.7470909,35.7149091 48.3747273,35.7149091 Z" id="Path"></path>
                    <path d="M11.8852727,22.9992727 C11.5338182,22.9992727 11.2489091,23.2841818 11.2489091,23.6356364 L11.2489091,31.9992727 C11.2489091,32.3507273 11.5338182,32.6356364 11.8852727,32.6356364 L13.3398182,32.6356364 C13.6912727,32.6356364 13.9761818,32.3507273 13.9761818,31.9992727 L13.9761818,23.6356364 C13.9761818,23.2841818 13.6912727,22.9992727 13.3398182,22.9992727 L11.8852727,22.9992727 L11.8852727,22.9992727 Z" id="Path"></path>
                    <path d="M47.4656364,23.3025455 C47.1141818,23.3025455 46.8292727,23.5874545 46.8292727,23.9389091 L46.8292727,32.3025455 C46.8292727,32.654 47.1141818,32.9389091 47.4656364,32.9389091 L48.9201818,32.9389091 C49.2716364,32.9389091 49.5565455,32.654 49.5565455,32.3025455 L49.5565455,23.9389091 C49.5565455,23.5874545 49.2716364,23.3025455 48.9201818,23.3025455 L47.4656364,23.3025455 Z" id="Path"></path>
                    <path d="M32.9538182,9.69745455 L26.6050909,9.69745455 C26.2534545,9.69745455 25.9687273,9.98236364 25.9687273,10.3338182 L25.9687273,11.7883636 C25.9687273,12.1398182 26.2534545,12.4247273 26.6050909,12.4247273 L32.9538182,12.4247273 C33.3050909,12.4247273 33.5901818,12.1398182 33.5901818,11.7883636 L33.5901818,10.3338182 C33.5901818,9.98236364 33.3050909,9.69745455 32.9538182,9.69745455 Z" id="Path"></path>
                </g>
            </g>
        </g>
    </g>
</svg>